#!OML:ASF H:\ColoradoDance\Project 1\Capture day 1\Session 8\male.ASF
:FULLY-SPECIFIED
:DEGREES
92
upperback -1.975570 -3.733040 -0.130139
rfoot 1.437080 -10.960100
lradius 39.552299
lthumb 5.593470 50.847500
rradius 21.168200
lwrist -7.286200
rhand -17.688499 2.624450
rhumerus -71.864304 -14.521700 -71.045097
lowerneck 0.525101 12.240000 12.797000
lhand -20.773100 20.941299
ltibia 23.681101
head 4.593870 8.580730 -4.562410
rwrist 12.487700
lfingers 7.125020
rtoes -31.207600
lowerback 2.495080 -2.710910 -2.771450
rfingers 7.125020
lclavicle -0.000000 -0.000000
upperneck 8.619270 17.243000 -11.383300
rfemur -47.564800 -12.717300 9.413650
thorax -3.262890 -1.796310 1.607300
rclavicle -0.000000 -0.000000
rtibia 61.888901
lfoot -25.084900 10.229500
lhumerus -19.719000 -30.297800 91.031303
rthumb 8.570960 -387.182007
root -38.584999 18.931700 -8.612900 729.747986 30.627199 360.023987
ltoes -24.187500
lfemur 1.557670 5.303470 -10.669100
93
upperback -1.915800 -4.037750 0.898156
rfoot -2.609540 -17.791500
lradius 46.375000
lthumb 9.771130 53.453701
rradius 29.272699
lwrist -1.597440
rhand -27.879000 2.142380
rhumerus -66.403900 -10.811900 -72.361603
lowerneck -1.975270 9.582790 10.800100
lhand -16.444700 23.700399
ltibia 19.623199
head 4.102130 6.550630 -4.153520
rwrist 6.672160
lfingers 7.125020
rtoes 0.675110
lowerback 1.742410 -3.071180 1.072660
rfingers 7.125020
lclavicle -0.000000 -0.000000
upperneck 7.958390 13.288000 -10.213400
rfemur -25.205400 14.051600 -11.422300
thorax -2.952080 -2.024760 0.496136
rclavicle -0.000000 -0.000000
rtibia 19.611601
lfoot -16.289499 7.354780
lhumerus -27.316200 -36.705101 97.432800
rthumb -1.269030 -387.834015
root -39.054501 18.352600 -5.031690 724.580994 57.075901 353.325012
ltoes -28.096500
lfemur 0.829563 -8.589840 8.248890
94
upperback -2.242700 -4.328490 0.906208
rfoot -21.638201 -1.572890
lradius 48.458698
lthumb -0.003856 60.275101
rradius 33.477299
lwrist -0.674308
rhand -26.632401 -10.971600
rhumerus -50.729000 -2.497420 -49.509998
lowerneck -3.130620 8.091520 10.490000
lhand -26.569000 30.295300
ltibia 50.170101
head 2.738690 5.361280 -5.392160
rwrist 8.755060
lfingers 7.125020
rtoes -9.366340
lowerback 4.212930 -3.517320 5.123630
rfingers 7.125020
lclavicle -0.000000 -0.000000
upperneck 2.906010 11.029800 -13.759100
rfemur -35.028000 -12.347500 -3.374910
thorax -5.004450 -2.291390 -1.542750
rclavicle -0.000000 -0.000000
rtibia 53.568100
lfoot -13.406200 8.621990
lhumerus -21.512501 -22.567301 92.921600
rthumb -0.065083 -400.950989
root -39.856800 17.520500 -2.835930 736.385986 76.970703 360.683014
ltoes -9.763000
lfemur -35.282600 13.791500 5.397510
95
upperback -2.417260 -1.923250 0.774850
rfoot -25.740700 -4.225760
lradius 51.115398
lthumb -2.401830 56.663700
rradius 40.328701
lwrist -8.100190
rhand -33.296001 -1.283110
rhumerus -45.181999 -4.726230 -40.131500
lowerneck -5.627440 3.109880 9.328420
lhand -29.051901 26.697500
ltibia 52.136299
head 2.361580 1.841390 -4.541810
rwrist 3.801970
lfingers 7.125020
rtoes -22.669001
lowerback 5.069220 -1.866630 6.954800
rfingers 7.125020
lclavicle 0.000000 -0.000000
upperneck 3.511680 4.001770 -10.491800
rfemur -22.000000 -22.405600 -5.848130
thorax -5.587510 -1.178510 -2.898060
rclavicle 0.000000 -0.000000
rtibia 53.859699
lfoot -11.599000 10.834600
lhumerus -30.297600 -21.665701 92.838303
rthumb -6.500010 -391.162994
root -38.900002 16.875299 -3.451000 754.403992 90.653900 380.131012
ltoes -10.465900
lfemur -44.038700 23.120701 6.251630
